<?xml version="1.0" standalone="no"?>
<!DOCTYPE svg PUBLIC "-//W3C//DTD SVG 20010904//EN"
 "http://www.w3.org/TR/2001/REC-SVG-20010904/DTD/svg10.dtd">
<svg version="1.0" xmlns="http://www.w3.org/2000/svg"
 width="500.000000pt" height="151.000000pt" viewBox="0 0 500.000000 151.000000"
 preserveAspectRatio="xMidYMid meet">

<g transform="translate(0.000000,151.000000) scale(0.100000,-0.100000)"
fill="#000000" stroke="none">
<path d="M190 1281 l0 -59 61 -4 c33 -1 63 -1 65 1 2 2 4 31 4 63 l0 58 -65 0
-65 0 0 -59z"/>
<path d="M480 1315 c0 -18 -5 -25 -20 -25 -13 0 -20 -7 -20 -20 0 -12 7 -20
16 -20 9 0 18 9 21 20 3 13 14 20 29 20 19 0 24 5 24 25 0 20 -5 25 -25 25
-20 0 -25 -5 -25 -25z"/>
<path d="M240 959 c0 -27 3 -30 28 -27 21 2 28 9 30 31 3 24 0 27 -27 27 -28
0 -31 -3 -31 -31z"/>
<path d="M560 898 l0 -58 55 0 55 0 0 58 0 57 -55 0 -55 0 0 -57z"/>
<path d="M700 826 c0 -10 -28 -15 -117 -19 -155 -8 -163 -11 -163 -53 l0 -34
-85 0 c-79 0 -85 1 -85 21 0 33 -25 16 -28 -19 l-3 -32 -75 0 c-66 0 -74 2
-74 19 0 32 -52 12 -61 -23 -6 -22 -5 -27 7 -22 13 5 170 -2 412 -19 54 -4 82
-3 82 4 0 6 -16 11 -35 11 l-35 0 0 60 0 60 65 0 65 0 0 -29 c0 -28 2 -30 48
-33 l47 -3 0 -40 0 -40 53 -3 52 -3 0 105 0 106 -35 0 c-23 0 -35 -5 -35 -14z"/>
<path d="M17 634 c-11 -11 -9 -572 2 -578 8 -5 154 -15 681 -45 85 -4 161 -6
168 -4 8 4 12 35 12 108 l0 102 -97 7 c-106 8 -138 21 -154 63 -14 38 6 90 43
109 25 13 48 15 119 9 l89 -7 0 90 c0 54 -4 94 -11 97 -6 4 -162 15 -347 25
-185 10 -373 21 -417 25 -45 3 -84 3 -88 -1z"/>
<path d="M1960 522 c0 -35 2 -38 28 -37 24 1 27 6 30 38 3 35 2 37 -27 37 -29
0 -31 -2 -31 -38z"/>
<path d="M1290 518 c-26 -14 -57 -41 -75 -66 -27 -39 -30 -52 -30 -116 0 -63
4 -79 30 -121 64 -104 211 -125 314 -46 23 17 23 19 6 44 l-17 27 -25 -20
c-107 -84 -243 -20 -243 116 0 82 60 144 140 144 43 0 90 -26 90 -50 0 -16 7
-20 30 -20 27 0 30 3 30 33 0 84 -146 127 -250 75z"/>
<path d="M1661 408 c-148 -77 -81 -297 87 -285 91 6 146 64 146 152 0 85 -51
141 -139 151 -40 4 -59 1 -94 -18z m140 -67 c38 -39 39 -87 3 -130 -45 -53
-123 -40 -150 26 -42 98 72 179 147 104z"/>
<path d="M2215 411 c-34 -18 -40 -19 -48 -6 -5 9 -23 15 -47 15 -38 0 -40 -2
-40 -30 0 -22 4 -28 15 -24 13 5 15 -11 15 -115 l0 -121 35 0 35 0 0 91 c0 87
1 92 29 120 16 16 40 29 53 29 47 0 53 -13 58 -127 l5 -108 48 -3 c44 -3 47
-2 47 21 0 16 -7 26 -20 30 -18 5 -20 14 -20 96 0 79 -3 93 -23 116 -31 36
-89 43 -142 16z"/>
<path d="M1922 393 c2 -17 9 -28 18 -28 12 0 16 -22 20 -115 l5 -115 48 -3
c44 -3 47 -2 47 21 0 16 -7 26 -20 30 -18 4 -20 15 -22 118 l-3 114 -48 3
c-48 3 -48 3 -45 -25z"/>
<path d="M696 344 c-29 -29 -12 -64 31 -64 32 0 46 31 27 58 -18 26 -37 28
-58 6z"/>
</g>
</svg>
