<?xml version="1.0" encoding="UTF-8" standalone="no"?>
<!-- Created with Inkscape (http://www.inkscape.org/) -->

<svg
   xmlns:dc="http://purl.org/dc/elements/1.1/"
   xmlns:cc="http://creativecommons.org/ns#"
   xmlns:rdf="http://www.w3.org/1999/02/22-rdf-syntax-ns#"
   xmlns:svg="http://www.w3.org/2000/svg"
   xmlns="http://www.w3.org/2000/svg"
   xmlns:sodipodi="http://sodipodi.sourceforge.net/DTD/sodipodi-0.dtd"
   xmlns:inkscape="http://www.inkscape.org/namespaces/inkscape"
   width="218.60001"
   height="28.1"
   viewBox="0 0 57.837917 7.4347918"
   version="1.1"
   id="svg2448"
   inkscape:version="0.92.0 r15299"
   sodipodi:docname="paymentwall.svg">
  <defs
     id="defs2442">
    <clipPath
       id="clipPath2594"
       clipPathUnits="userSpaceOnUse">
      <path
         inkscape:connector-curvature="0"
         id="path2592"
         d="M 0,841.89 H 595.28 V 0 H 0 Z" />
    </clipPath>
    <clipPath
       id="clipPath2618"
       clipPathUnits="userSpaceOnUse">
      <path
         inkscape:connector-curvature="0"
         id="path2616"
         d="M 0,841.89 H 595.28 V 0 H 0 Z" />
    </clipPath>
    <clipPath
       id="clipPath2626"
       clipPathUnits="userSpaceOnUse">
      <path
         inkscape:connector-curvature="0"
         id="path2624"
         d="M -0.609726,841.89 H 594.668 V 482.444 H -0.609726 Z" />
    </clipPath>
    <clipPath
       id="clipPath2664"
       clipPathUnits="userSpaceOnUse">
      <path
         inkscape:connector-curvature="0"
         id="path2662"
         d="M 0,841.89 H 595.28 V 0 H 0 Z" />
    </clipPath>
    <clipPath
       id="clipPath2718"
       clipPathUnits="userSpaceOnUse">
      <path
         inkscape:connector-curvature="0"
         id="path2716"
         d="M 0,841.89 H 595.28 V 0 H 0 Z" />
    </clipPath>
  </defs>
  <sodipodi:namedview
     id="base"
     pagecolor="#ffffff"
     bordercolor="#666666"
     borderopacity="1.0"
     inkscape:pageopacity="0.0"
     inkscape:pageshadow="2"
     inkscape:zoom="3.6856618"
     inkscape:cx="108.8"
     inkscape:cy="13.55"
     inkscape:document-units="mm"
     inkscape:current-layer="layer1"
     showgrid="false"
     fit-margin-top="0"
     fit-margin-left="0"
     fit-margin-right="0"
     fit-margin-bottom="0"
     units="px"
     inkscape:window-width="1280"
     inkscape:window-height="744"
     inkscape:window-x="-4"
     inkscape:window-y="-4"
     inkscape:window-maximized="1" />
  <metadata
     id="metadata2445">
    <rdf:RDF>
      <cc:Work
         rdf:about="">
        <dc:format>image/svg+xml</dc:format>
        <dc:type
           rdf:resource="http://purl.org/dc/dcmitype/StillImage" />
        <dc:title></dc:title>
      </cc:Work>
    </rdf:RDF>
  </metadata>
  <g
     inkscape:label="Layer 1"
     inkscape:groupmode="layer"
     id="layer1"
     transform="translate(9.5476973,-338.80697)">
    <g
       id="g3252"
       transform="matrix(0.26458333,0,0,0.26458333,-9.4154045,338.93926)">
      <path
         id="path3228"
         d="M 47,21 V 0.5 h 10.3 c 4.6,0 7.1,3.1 7.1,6.8 0,3.7 -2.5,6.8 -7.1,6.8 h -5 V 21 Z M 59,7.3 C 59,5.9 58,5.1 56.5,5.1 h -4.3 v 4.4 h 4.3 C 58,9.5 59,8.7 59,7.3 Z M 74.2,21 v -1.5 c -0.9,1.1 -2.7,1.8 -4.6,1.8 -2.3,0 -5.1,-1.5 -5.1,-4.9 0,-3.6 2.8,-4.8 5.1,-4.8 2,0 3.7,0.6 4.6,1.7 v -1.8 c 0,-1.3 -1.1,-2.1 -3,-2.1 -1.5,0 -3,0.6 -4.2,1.6 L 65.3,8 c 1.9,-1.6 4.5,-2.3 6.7,-2.3 3.6,0 6.9,1.3 6.9,5.9 V 21 Z m 0,-3.9 v -1.3 c -0.5,-0.7 -1.6,-1 -2.6,-1 -1.3,0 -2.4,0.6 -2.4,1.7 0,1.2 1.1,1.7 2.4,1.7 1,0 2.1,-0.3 2.6,-1.1 z m 7,5.4 c 0.3,0.2 0.8,0.3 1.2,0.3 1.1,0 1.8,-0.2 2,-0.8 l 0.3,-0.8 -5.9,-15 h 5 l 3.3,9.4 3.4,-9.4 h 5 l -6.7,17 c -1.2,3.1 -3.4,3.8 -6.3,3.9 -0.4,0 -1.5,-0.1 -2,-0.2 z M 115.1,21 v -9 c 0,-1.1 -0.6,-2 -2,-2 -1.3,0 -2.2,0.8 -2.7,1.4 V 21 h -4.7 v -9 c 0,-1.1 -0.5,-2 -2,-2 -1.3,0 -2.1,0.8 -2.6,1.4 V 21 H 96.4 V 6.1 h 4.7 v 1.8 c 0.6,-0.9 2.5,-2.2 4.9,-2.2 2.1,0 3.6,0.9 4.2,2.6 0.9,-1.3 2.8,-2.6 5.1,-2.6 2.7,0 4.5,1.4 4.5,4.5 V 21 Z m 6.2,-7.5 c 0,-4.3 3.3,-7.8 7.9,-7.8 4.4,0 7.6,3.2 7.6,8.3 v 1 h -10.6 c 0.3,1.4 1.6,2.6 3.7,2.6 1,0 2.9,-0.5 3.7,-1.3 l 2,2.9 c -1.5,1.3 -3.9,2 -6.2,2 -4.5,0.1 -8.1,-2.9 -8.1,-7.7 z m 7.9,-4.1 c -2.1,0 -2.9,1.5 -3,2.5 h 6.1 c -0.1,-1 -0.9,-2.5 -3.1,-2.5 z M 148.3,21 v -8.6 c 0,-1.8 -1,-2.5 -2.4,-2.5 -1.4,0 -2.3,0.8 -2.9,1.4 V 21 h -4.7 V 6.1 h 4.7 v 1.8 c 0.9,-1 2.6,-2.2 5.1,-2.2 3.4,0 4.9,2 4.9,4.7 V 21 Z m 8,-4 v -6.7 h -2.5 V 6.1 h 2.5 v -4 h 4.7 v 4.1 h 3 v 4.1 h -3 v 5.4 c 0,0.9 0.5,1.5 1.3,1.5 0.5,0 1,-0.2 1.2,-0.4 l 0.9,3.6 c -0.6,0.6 -1.8,1 -3.5,1 -2.9,-0.1 -4.6,-1.6 -4.6,-4.4 z m 23.5,4 -2.8,-9.2 -2.8,9.2 h -5.1 L 164.7,6.2 h 4.9 l 2.4,9.1 2.9,-9.1 h 4.2 l 2.9,9.1 2.4,-9.1 h 4.9 L 184.9,21 Z m 19,0 v -1.5 c -0.9,1.1 -2.7,1.8 -4.6,1.8 -2.3,0 -5.1,-1.5 -5.1,-4.9 0,-3.6 2.8,-4.8 5.1,-4.8 2,0 3.7,0.6 4.6,1.7 v -1.8 c 0,-1.3 -1.1,-2.1 -3,-2.1 -1.5,0 -3,0.6 -4.2,1.6 l -1.7,-3 c 1.9,-1.6 4.5,-2.3 6.7,-2.3 3.6,0 6.9,1.3 6.9,5.9 V 21 Z m 0,-3.9 v -1.3 c -0.5,-0.7 -1.6,-1 -2.6,-1 -1.3,0 -2.4,0.6 -2.4,1.7 0,1.2 1.1,1.7 2.4,1.7 1,0 2.1,-0.3 2.6,-1.1 z M 206,21 V 0.5 h 4.7 V 21 Z m 6.9,0 V 0.5 h 4.7 V 21 Z"
         class="pw_grey"
         inkscape:connector-curvature="0"
         style="fill:#4a4e51" />
      <g
         id="g3236">
        <path
           id="path3230"
           d="m 27.2,21 2.3,-6.2 H 38 L 40.3,21 Z M 13.7,21 16,14.8 h 8.5 l 2.3,6.2 z m 6.8,-7.4 2.2,-6.2 h 8.5 l 2.3,6.2 z m -13.7,0 2.3,-6.2 h 8.5 l 2.2,6.2 z M 0,21 2.3,14.8 h 8.5 l 2.3,6.2 z"
           class="pw_gold"
           inkscape:connector-curvature="0"
           style="fill:#fcbf14" />
        <g
           id="g3234">
          <path
             id="path3232"
             d="M 13.7,6.3 16,0 h 8.4 l 2.3,6.3 z"
             class="pw_gold"
             inkscape:connector-curvature="0"
             style="fill:#fcbf14" />
        </g>
      </g>
    </g>
  </g>
  <style
     id="style3189"> .pw_grey{fill:#4A4E51;} .pw_gold{fill:#FCBF14;} </style>
  <style
     id="style3226"> .pw_grey{fill:#4A4E51;} .pw_gold{fill:#FCBF14;} </style>
</svg>
